<svg width="57" height="61" viewBox="0 0 57 61" fill="none" xmlns="http://www.w3.org/2000/svg">
<path d="M32.5786 38.7438C32.5786 40.2549 33.8037 41.48 35.3148 41.48C36.826 41.48 38.0511 40.2549 38.0511 38.7438V27.7191C39.8685 27.7368 41.5844 28.1052 43.1987 28.8241C44.8538 29.5433 46.2953 30.5321 47.5233 31.7906C48.7513 33.0311 49.7301 34.4873 50.4598 36.1593C51.1716 37.8313 51.5275 39.6202 51.5275 41.5259V60.8618H57V41.5259C57 39.746 56.7775 38.0381 56.3326 36.402C55.8699 34.748 55.2292 33.2109 54.4106 31.7906C53.5742 30.3523 52.5775 29.0488 51.4208 27.8802C50.2462 26.6937 48.9559 25.6779 47.55 24.8329C46.1263 23.9879 44.6047 23.3407 42.9852 22.8912C41.408 22.436 39.7633 22.2024 38.0511 22.1905V0H19.0869C17.325 0 15.6343 0.23372 14.0148 0.70116C12.3953 1.15062 10.8737 1.79785 9.45001 2.64284C8.04407 3.48782 6.75382 4.50361 5.57924 5.69019C4.42246 6.85879 3.42585 8.16223 2.58941 9.6005C1.77076 11.0208 1.13009 12.558 0.667373 14.212C0.222458 15.848 0 17.556 0 19.3358V58.2638C0 59.7749 1.22505 61 2.73623 61C4.24741 61 5.47246 59.775 5.47246 58.2638V19.3358C5.47246 17.4301 5.82839 15.6413 6.54026 13.9693C7.26992 12.2973 8.24874 10.841 9.4767 9.6005C10.7047 8.34201 12.1462 7.3532 13.8013 6.63406C15.4564 5.89694 17.2182 5.52838 19.0869 5.52838H32.5786V22.1135H10.9194C9.40018 22.1135 8.16865 23.3451 8.16865 24.8642C8.16865 26.3834 9.40018 27.6149 10.9194 27.6149H14.1143V58.1257C14.1143 59.6368 15.3393 60.8619 16.8505 60.8619C18.3617 60.8619 19.5867 59.6368 19.5867 58.1257V49.8051L46.0807 49.805C47.5998 49.805 48.8314 48.5735 48.8314 47.0543C48.8314 45.5351 47.5998 44.3036 46.0806 44.3036L19.5867 44.3037V27.7186L32.5786 27.7185V38.7438Z" fill="#FFF47B"/>
</svg>
